<svg id="Layer_1" data-name="Layer 1" xmlns="http://www.w3.org/2000/svg" viewBox="0 0 160.16 126.66"><defs><style>.cls-1{fill:#fff;}.cls-2{fill:#9d9795;}.cls-3{fill:#cfb991;}</style></defs><path class="cls-1" d="M30,43.53v7.4l3.83-.28c1-.44,1.94-1,1.94-3.4,0-1.81-.09-3.72-3.59-3.72Zm-3.65.07L24.25,43V41.51h8c5.25,0,7.18,1.67,7.18,5.63,0,3.7-2.11,5.62-6.26,5.62H30v5.93l2.08.6v1.38H24.2V59.29l2.11-.6V43.6Z"/><path class="cls-1" d="M66.76,43.54v7.3l3.88-.26C71.87,50,72.47,49,72.47,47s-.68-3.45-2.87-3.45Zm2.6,9h-2.6v6.18l2.09.6v1.38H61V59.29l2.11-.6V43.6L61,43V41.51h8.4c5,0,6.79,1.77,6.79,5.16,0,2.63-1,4-3.39,4.93l3.55,6.93,2.29.76v1.38H73.33l-4-8.16Z"/><path class="cls-1" d="M86,43.54V58.69h2.75c1.88,0,5.13-.3,5.13-7.22,0-5.45-1-7.93-5.13-7.93ZM80.23,59.29l2.09-.57V43.6L80.26,43V41.51h9.26c5.24,0,8.3,3.16,8.3,9.37,0,7-3.17,9.79-8.7,9.79H80.23V59.29Z"/><path class="cls-1" d="M32.31,70.66c0,2.33-1.35,3.18-3.56,3.18s-3.55-1.3-3.55-3.18V66l-1-.32v-.88h4.08v.88l-1,.32v4.67c0,1.2.47,1.86,1.78,1.86.64,0,1.73-.2,1.73-1.92V66l-1-.32v-.88h3.51v.88l-1,.32v4.67Z"/><polygon class="cls-1" points="39.35 68.25 39.35 72.54 40.34 72.84 40.34 73.71 36.89 73.71 36.89 72.84 37.9 72.54 37.9 66.46 37.47 65.92 36.88 65.73 36.88 64.79 39.13 64.79 43.48 70.26 43.48 65.99 42.48 65.69 42.48 64.79 45.93 64.79 45.93 65.69 44.93 65.99 44.93 73.72 43.76 73.72 39.35 68.25 39.35 68.25"/><polygon class="cls-1" points="53.36 72.54 54.36 72.84 54.36 73.71 50.27 73.71 50.27 72.84 51.27 72.54 51.27 65.97 50.27 65.67 50.27 64.79 54.36 64.79 54.36 65.67 53.36 65.97 53.36 72.54 53.36 72.54"/><polygon class="cls-1" points="108.53 72.54 109.53 72.84 109.53 73.71 105.43 73.71 105.43 72.84 106.43 72.54 106.43 65.97 105.43 65.67 105.43 64.79 109.53 64.79 109.53 65.67 108.53 65.97 108.53 72.54 108.53 72.54"/><polygon class="cls-1" points="63.74 73.71 61.81 73.71 58.98 65.99 57.98 65.67 57.98 64.79 62.29 64.79 62.29 65.67 61.28 65.99 63.16 71.48 65.07 65.99 64.07 65.67 64.07 64.79 67.58 64.79 67.58 65.67 66.58 65.99 63.74 73.71 63.74 73.71"/><polygon class="cls-1" points="71.85 65.99 70.85 65.69 70.85 64.79 77.85 64.79 77.92 67.55 76.8 67.55 76.26 65.97 73.94 65.97 73.94 68.48 76.26 68.48 76.26 69.75 73.94 69.75 73.94 72.56 76.32 72.56 77.03 71 78.13 71 77.97 73.71 70.85 73.71 70.85 72.84 71.85 72.59 71.85 65.99 71.85 65.99"/><path class="cls-1" d="M85.73,66v3.12L87.14,69a1.88,1.88,0,0,0,.7-1.56c0-.89-.24-1.44-1.15-1.44Zm.76,4.08h-.76v2.47l1,.3v.87h-4.1v-.87l1-.3V66l-1-.31v-.89h4.08c2.49,0,3.26,1,3.26,2.47a2.15,2.15,0,0,1-1.44,2.34L90,72.5l1.25.39v.82h-3l-1.71-3.64Z"/><path class="cls-1" d="M94.84,70.94h1.24l.27,1.25a3.53,3.53,0,0,0,1.88.52h.29a1.35,1.35,0,0,0,.55-1.08c0-2.08-4.26-1.15-4.26-4.2,0-1.4,1.27-2.74,3.39-2.74a5.5,5.5,0,0,1,2.42.62v2.35H99.45L99,66.15a4,4,0,0,0-1.44-.28h-.24a1.21,1.21,0,0,0-.59,1.05c0,1.78,4.23,1.14,4.23,4.13,0,1.61-1.46,2.77-3.43,2.77A5.07,5.07,0,0,1,94.85,73V70.94Z"/><polygon class="cls-1" points="116.6 66 115.45 66 114.92 67.59 113.8 67.59 113.8 64.79 121.57 64.79 121.57 67.59 120.47 67.59 119.95 66 118.7 66 118.7 72.54 119.7 72.84 119.7 73.71 115.6 73.71 115.6 72.84 116.6 72.54 116.6 66 116.6 66"/><polygon class="cls-1" points="128.56 70.28 126.22 65.99 125.22 65.67 125.22 64.79 129.53 64.79 129.53 65.67 128.52 65.99 129.99 68.89 131.47 65.99 130.47 65.67 130.47 64.79 133.99 64.79 133.99 65.67 132.99 65.99 130.64 70.25 130.64 72.54 131.64 72.84 131.64 73.71 127.55 73.71 127.55 72.84 128.56 72.54 128.56 70.28 128.56 70.28"/><polygon class="cls-1" points="132.33 55.12 130.97 58.69 124.97 58.69 124.97 51.8 128.37 51.8 128.81 53.73 130.32 53.73 130.32 47.92 128.81 47.92 128.37 49.78 124.97 49.78 124.97 43.54 130.71 43.54 131.81 47.25 133.87 47.25 133.74 41.51 119.24 41.51 119.24 43 121.3 43.6 121.3 58.72 119.21 59.29 119.21 60.67 134.03 60.67 134.37 55.12 132.33 55.12 132.33 55.12"/><path class="cls-1" d="M57.3,54.08C57.3,58.94,55,61,50.22,61c-4.38,0-7.55-1.75-7.55-6.37v-11L40.59,43V41.51h7.82V43l-2.09.6v11c0,2.76,1.28,4,4.33,4,2.1,0,4-1.24,4-4.23V43.6L52.63,43V41.51h6.75V43l-2.08.6V54.08Z"/><path class="cls-1" d="M115.51,54.08c0,4.86-2.32,6.88-7.08,6.88-4.38,0-7.55-1.75-7.55-6.37v-11L98.8,43V41.51h7.82V43l-2.09.6v11c0,2.76,1.28,4,4.33,4,2.1,0,4-1.24,4-4.23V43.6l-2.06-.6V41.51h6.75V43l-2.08.6V54.08Z"/><path class="cls-2" d="M136.42,70.26a1.52,1.52,0,1,0,1.52,1.51,1.52,1.52,0,0,0-1.52-1.51Zm0,3.43a1.92,1.92,0,1,1,1.91-1.92,1.92,1.92,0,0,1-1.91,1.92Z"/><path class="cls-2" d="M136.18,71.64h.32c.21,0,.29-.08.29-.23s-.09-.22-.28-.22h-.33v.45Zm0,.31v.71h-.38V70.88h.78c.39,0,.6.22.6.49a.42.42,0,0,1-.26.42c.09,0,.22.12.22.44v.09a1.16,1.16,0,0,0,0,.34h-.37a1.36,1.36,0,0,1,0-.4v0c0-.19-.05-.28-.34-.28Z"/><path class="cls-3" d="M81.67,33l4.12-9.68h6.83c9.88,0,13.63-4.06,16.22-10.15,1-2.26,2.57-6,.45-9.24S102.7.37,99.51.37H63.22l-5.12,12h6.57L61,21H54.43L49.31,33Z"/><path class="cls-2" d="M107.43,5.16c-1.15-1.75-3.67-2.56-7.92-2.56H64.7l-3.22,7.56H68l-5.55,13H55.91l-3.22,7.57H80.2l3.22-7.57H76.75l.9-2.11h15c9.63,0,12.2-4.16,14.17-8.79,1.06-2.5,2-5.1.64-7.14m-25.13,5h11c1.51,0,1.3.76,1.1,1.23a3.69,3.69,0,0,1-3.52,2.14h-10Z"/><path d="M99.51,3.76H65.46L63.23,9H69.8L63.26,24.36H56.68l-2.24,5.25h25l2.24-5.25H75l1.88-4.43H92.62c9,0,11.29-3.82,13.11-8.09s2.8-8.08-6.22-8.08M90.88,14.69H79.12L81.54,9H93.3c2.08,0,2.92,1.07,2.16,2.84a4.79,4.79,0,0,1-4.58,2.85"/><path class="cls-1" d="M6.36,96.88v3.27H5.22V92.69H7.39a1.82,1.82,0,0,1,2,2,1.68,1.68,0,0,1-1,1.72c.62.26.87.79.87,1.87v.29a8.49,8.49,0,0,0,.1,1.58H8.3a6.36,6.36,0,0,1-.12-1.59V98.3c0-1-.22-1.42-1.12-1.42Zm0-.95h.75c.84,0,1.16-.4,1.16-1.2a1,1,0,0,0-1-1.08H6.36Z"/><path class="cls-1" d="M14.35,97.26c0,2-.73,3-2.08,3s-2.06-.93-2.06-3,.83-2.9,2.11-2.9S14.35,95.37,14.35,97.26Zm-3,0c0,1.32.26,2,.92,2s.9-.68.9-2-.26-1.94-.9-1.94S11.37,96,11.37,97.29Z"/><path class="cls-1" d="M16.1,98.46a.82.82,0,0,0,.82.91.65.65,0,0,0,.73-.71c0-.46-.22-.69-.92-1-1.27-.48-1.6-.93-1.6-1.74a1.56,1.56,0,0,1,1.76-1.58,1.59,1.59,0,0,1,1.77,1.71h-1.1a.72.72,0,0,0-.7-.83.57.57,0,0,0-.62.62c0,.39.2.57.91.84,1.17.44,1.63.88,1.63,1.8,0,1.09-.68,1.72-1.91,1.72A1.71,1.71,0,0,1,15,98.46Z"/><path class="cls-1" d="M20.54,97.59c0,.85.12,1.71.9,1.71a.84.84,0,0,0,.85-.84h1.1a1.89,1.89,0,0,1-2,1.8c-1.77,0-2-1.54-2-3,0-1.8.66-2.91,2.05-2.91,1.6,0,2,1.24,2,2.69,0,.16,0,.41,0,.51Zm1.76-.83c0-.69-.11-1.42-.85-1.42s-.89,1-.9,1.42Z"/><path class="cls-1" d="M24.36,96.25c0-1.16,0-1.47,0-1.76h1.1a5.36,5.36,0,0,1,0,.64,1.34,1.34,0,0,1,1.29-.74c.88,0,1.45.54,1.45,1.72v4H27.07V96.36c0-.6-.15-1-.71-1s-.86.35-.86,1.32v3.46H24.36Z"/><path class="cls-1" d="M35.76,98a2.17,2.17,0,0,1-2.16,2.26c-2.08,0-2.29-2-2.29-3.87,0-2.34.66-3.82,2.36-3.82a2,2,0,0,1,2.08,2.24H34.6c0-.25-.05-1.25-.94-1.25s-1.15,1.23-1.15,2.85c0,1.46.15,2.87,1.11,2.87s1-1,1-1.28Z"/><path class="cls-1" d="M37.59,97.59c0,.85.12,1.71.9,1.71a.84.84,0,0,0,.85-.84h1.1a1.89,1.89,0,0,1-2,1.8c-1.77,0-2-1.54-2-3,0-1.8.66-2.91,2-2.91,1.6,0,2,1.24,2,2.69,0,.16,0,.41,0,.51Zm1.76-.83c0-.69-.11-1.42-.85-1.42s-.89,1-.9,1.42Z"/><path class="cls-1" d="M41.41,96.25c0-1.16,0-1.47,0-1.76h1.1a5.36,5.36,0,0,1,0,.64,1.33,1.33,0,0,1,1.29-.74c.88,0,1.45.54,1.45,1.72v4H44.12V96.36c0-.6-.15-1-.71-1s-.86.35-.86,1.32v3.46H41.41Z"/><path class="cls-1" d="M45.84,94.49h.76V93.05h1.13v1.44h.92v1h-.92v3.3c0,.35.07.55.49.55a1.78,1.78,0,0,0,.34,0v.84a2,2,0,0,1-.75.11c-.83,0-1.21-.3-1.21-1.28v-3.5h-.76Z"/><path class="cls-1" d="M50.24,97.59c0,.85.12,1.71.9,1.71a.84.84,0,0,0,.85-.84h1.1a1.89,1.89,0,0,1-2,1.8c-1.77,0-2-1.54-2-3,0-1.8.66-2.91,2-2.91,1.6,0,2,1.24,2,2.69,0,.16,0,.41,0,.51ZM52,96.76c0-.69-.11-1.42-.85-1.42s-.89,1-.9,1.42Z"/><path class="cls-1" d="M54.06,96.41c0-.92,0-1.51,0-1.92h1.08a6.63,6.63,0,0,1,0,1,1.46,1.46,0,0,1,1.48-1v1.27c-.93,0-1.45.38-1.45,1.44v3H54.06Z"/><path class="cls-1" d="M59.56,100.15V95.44h-.69v-1h.69v-.62c0-.92.39-1.61,1.48-1.61a2.37,2.37,0,0,1,.51,0v1a1.69,1.69,0,0,0-.33,0c-.4,0-.52.23-.52.68v.56h.84v1H60.7v4.71Z"/><path class="cls-1" d="M66,97.26c0,2-.73,3-2.08,3s-2.06-.93-2.06-3,.83-2.9,2.12-2.9S66,95.37,66,97.26Zm-3,0c0,1.32.26,2,.92,2s.91-.68.91-2-.27-1.94-.91-1.94S63,96,63,97.29Z"/><path class="cls-1" d="M66.93,96.41c0-.92,0-1.51,0-1.92H68a8.84,8.84,0,0,1,0,1,1.46,1.46,0,0,1,1.48-1v1.27c-.93,0-1.45.38-1.45,1.44v3H66.93Z"/><path class="cls-1" d="M73.37,98.1l-.43,2.05H71.79l1.75-7.46H75l1.79,7.46H75.6l-.44-2.05Zm1.59-1c-.33-1.56-.58-2.65-.69-3.32h0c-.09.68-.35,1.87-.66,3.32Z"/><path class="cls-1" d="M81.3,92.33v6.29c0,.63,0,1.2,0,1.53h-1.1c0-.15,0-.46,0-.66a1.19,1.19,0,0,1-1.29.76c-1.17,0-1.66-1-1.66-3,0-1.74.6-2.87,1.87-2.87.65,0,1,.26,1.06.5V92.33Zm-2,6.94c.75,0,.92-.6.92-2s-.14-1.87-.86-1.87-.94.48-.94,1.92S78.67,99.27,79.27,99.27Z"/><path class="cls-1" d="M83.19,94.49c.39,1.69.83,3.59,1,4.45h0c.1-.79.69-3,1-4.45h1.15l-1.6,5.66H83.48L82,94.49Z"/><path class="cls-1" d="M90.38,99c0,.31,0,.93,0,1.16h-1a4.18,4.18,0,0,1-.06-.56,1.35,1.35,0,0,1-1.3.66,1.5,1.5,0,0,1-1.49-1.67c0-1.12.77-1.84,2.22-1.84a3.86,3.86,0,0,1,.51,0v-.67c0-.37-.07-.8-.7-.8s-.7.42-.73.8H86.76a1.61,1.61,0,0,1,1.86-1.7c1.16,0,1.76.55,1.76,1.62Zm-1.09-1.4a3.18,3.18,0,0,0-.47,0c-.83,0-1.15.4-1.15.92a.73.73,0,0,0,.73.82c.71,0,.89-.53.89-1.48Z"/><path class="cls-1" d="M91.61,96.25c0-1.16,0-1.47,0-1.76h1.1a5.36,5.36,0,0,1,0,.64A1.34,1.34,0,0,1,94,94.39c.88,0,1.45.54,1.45,1.72v4H94.33V96.36c0-.6-.16-1-.72-1s-.86.35-.86,1.32v3.46H91.61Z"/><path class="cls-1" d="M100.32,98.3a1.83,1.83,0,0,1-1.92,2c-1.58,0-2-1.3-2-3s.5-2.89,2-2.89a1.77,1.77,0,0,1,1.86,1.89H99.17c0-.23-.06-.94-.72-.94s-.88.73-.88,2,.23,2,.86,2,.75-.68.78-1Z"/><path class="cls-1" d="M102.14,97.59c0,.85.12,1.71.9,1.71a.84.84,0,0,0,.84-.84H105a1.9,1.9,0,0,1-2,1.8c-1.78,0-2-1.54-2-3,0-1.8.66-2.91,2.06-2.91,1.59,0,2,1.24,2,2.69,0,.16,0,.41,0,.51Zm1.76-.83c0-.69-.11-1.42-.85-1.42s-.89,1-.9,1.42Z"/><path class="cls-1" d="M109.85,92.33v6.29c0,.63,0,1.2,0,1.53h-1.1c0-.15,0-.46,0-.66a1.18,1.18,0,0,1-1.28.76c-1.18,0-1.66-1-1.66-3,0-1.74.59-2.87,1.87-2.87.65,0,.94.26,1,.5V92.33Zm-2,6.94c.75,0,.93-.6.93-2s-.15-1.87-.86-1.87-.95.48-.95,1.92S107.22,99.27,107.81,99.27Z"/><path class="cls-1" d="M117.39,98a2.17,2.17,0,0,1-2.16,2.26c-2.08,0-2.29-2-2.29-3.87,0-2.34.66-3.82,2.36-3.82a2,2,0,0,1,2.08,2.24h-1.15c0-.25,0-1.25-.94-1.25s-1.15,1.23-1.15,2.85c0,1.46.15,2.87,1.11,2.87s1-1,1-1.28Z"/><path class="cls-1" d="M122.21,97.26c0,2-.73,3-2.08,3s-2.06-.93-2.06-3,.83-2.9,2.12-2.9S122.21,95.37,122.21,97.26Zm-3,0c0,1.32.26,2,.92,2s.91-.68.91-2-.27-1.94-.91-1.94S119.23,96,119.23,97.29Z"/><path class="cls-1" d="M123.17,96.19c0-1.08,0-1.44,0-1.7h1.08a3.85,3.85,0,0,1,0,.63,1.33,1.33,0,0,1,1.25-.73,1.11,1.11,0,0,1,1.16.8,1.48,1.48,0,0,1,1.38-.8c.77,0,1.41.39,1.41,1.69v4.07h-1.12v-3.9c0-.49-.15-.88-.67-.88s-.79.49-.79,1.2v3.58h-1.14V96.28c0-.59-.18-.9-.66-.9s-.8.45-.8,1.25v3.52h-1.13Z"/><path class="cls-1" d="M130.69,102.21V96.13c0-.77,0-1.29,0-1.64h1.1a5.82,5.82,0,0,1,0,.67,1.3,1.3,0,0,1,1.3-.77c1.06,0,1.65.93,1.65,2.84,0,2.15-.72,3-1.81,3a1.16,1.16,0,0,1-1.12-.6v2.55Zm2-6.84c-.72,0-.9.7-.9,1.88s.09,2,.88,2c.63,0,.94-.71.94-2S133.31,95.37,132.69,95.37Z"/><path class="cls-1" d="M139.54,98.52c0,.79,0,1.34,0,1.63h-1.09a4,4,0,0,1-.06-.66,1.25,1.25,0,0,1-1.28.76c-.75,0-1.41-.36-1.41-1.7V94.49h1.14v3.8c0,.61.14,1,.67,1s.87-.31.87-1.32V94.49h1.15Z"/><path class="cls-1" d="M140.24,94.49H141V93.05h1.13v1.44H143v1h-.91v3.3c0,.35.07.55.49.55a1.78,1.78,0,0,0,.34,0v.84a2,2,0,0,1-.75.11c-.83,0-1.21-.3-1.21-1.28v-3.5h-.76Z"/><path class="cls-1" d="M143.76,94.49h1.14v5.66h-1.14Zm0-.91V92.33h1.14v1.25Z"/><path class="cls-1" d="M146.12,96.25c0-1.16,0-1.47,0-1.76h1.1a3.67,3.67,0,0,1,0,.64,1.31,1.31,0,0,1,1.28-.74c.88,0,1.46.54,1.46,1.72v4h-1.15V96.36c0-.6-.15-1-.71-1s-.86.35-.86,1.32v3.46h-1.15Z"/><path class="cls-1" d="M155,99.72c0,1.57-.43,2.57-2.11,2.57s-1.89-.94-1.93-1.61h1.15c0,.22.12.68.82.68s.95-.6.95-1.64v-.34a1.23,1.23,0,0,1-1.24.73c-1.19,0-1.72-1-1.72-2.72,0-2,.72-3,1.84-3a1,1,0,0,1,1.12.65c0-.2,0-.41,0-.55H155c0,.33,0,.9,0,1.69Zm-2-.57c.74,0,.91-.72.91-2s-.1-1.82-.86-1.82-1,.64-1,2S152.42,99.15,153,99.15Z"/></svg>